<svg width="24" height="24" viewBox="0 0 24 24" fill="none" xmlns="http://www.w3.org/2000/svg">
<path d="M11.99 2C6.47 2 2 6.48 2 12C2 17.52 6.47 22 11.99 22C17.52 22 22 17.52 22 12C22 6.48 17.52 2 11.99 2ZM15.22 17.39L12 15.45L8.78 17.39C8.69575 17.4411 8.59833 17.4663 8.49987 17.4624C8.40141 17.4585 8.30626 17.4258 8.2263 17.3682C8.14633 17.3106 8.08508 17.2308 8.05017 17.1386C8.01526 17.0465 8.00825 16.9461 8.03 16.85L8.88 13.19L6.05 10.74C5.97649 10.6745 5.92372 10.589 5.89818 10.4939C5.87265 10.3988 5.87546 10.2984 5.90627 10.2049C5.93708 10.1114 5.99455 10.0289 6.07161 9.96762C6.14867 9.90636 6.24196 9.86895 6.34 9.86L10.08 9.54L11.54 6.09C11.71 5.68 12.29 5.68 12.46 6.09L13.92 9.53L17.66 9.85C17.7584 9.85846 17.8522 9.89589 17.9293 9.95757C18.0065 10.0192 18.0637 10.1024 18.0937 10.1966C18.1236 10.2907 18.125 10.3916 18.0977 10.4866C18.0703 10.5815 18.0155 10.6662 17.94 10.73L15.11 13.18L15.96 16.85C16.06 17.28 15.6 17.62 15.22 17.39Z" fill="#1389CD"/>
</svg>
