<svg width="17" height="16" viewBox="0 0 17 16" fill="none" xmlns="http://www.w3.org/2000/svg">
<path d="M12.8317 5.67941L14.0583 4.45274C15.6242 5.35607 16.6667 6.60441 16.6667 7.98774C16.6667 10.7494 12.535 12.9819 8.33333 12.9877C7.47831 12.9877 6.62562 12.8983 5.78917 12.7211L7.245 11.2661C7.6 11.3027 7.96333 11.3219 8.33083 11.3211H8.3325C7.98667 11.3211 7.65333 11.2686 7.34 11.1711L8.99083 9.51941C9.3825 9.35107 9.69667 9.03691 9.86583 8.64524L11.5158 6.99441C11.6712 7.49201 11.7077 8.01911 11.6223 8.53336C11.537 9.04762 11.3323 9.5347 11.0246 9.95547C10.7168 10.3762 10.3147 10.719 9.85052 10.9561C9.38631 11.1933 8.87295 11.3183 8.35167 11.3211C11.8892 11.3086 15 9.50107 15 7.98774C15 7.20191 14.1483 6.33274 12.8317 5.67941ZM5.08 8.71691C4.97079 8.22975 4.9724 7.72428 5.08472 7.23782C5.19704 6.75137 5.41719 6.29636 5.72892 5.90639C6.04066 5.51643 6.43601 5.20147 6.88578 4.98477C7.33555 4.76807 7.82825 4.65517 8.3275 4.65441C4.8125 4.64191 1.66667 6.46941 1.66667 7.98774C1.66667 8.73441 2.42 9.55191 3.60583 10.1911L2.39083 11.4044C0.945 10.5111 0 9.30857 0 7.98774C0 5.22607 4.15333 2.97357 8.33333 2.98774C9.095 2.99024 9.85583 3.06607 10.5908 3.20607L9.11 4.68607C8.86833 4.66774 8.62333 4.65691 8.37667 4.65441C8.61167 4.65774 8.84083 4.68524 9.0625 4.73441L5.07917 8.71691H5.08ZM15.91 0.243572C16.0662 0.399845 16.154 0.611769 16.154 0.832739C16.154 1.05371 16.0662 1.26563 15.91 1.42191L1.76833 15.5636C1.69152 15.6432 1.59961 15.7068 1.49797 15.7505C1.39633 15.7943 1.287 15.8173 1.17635 15.8184C1.0657 15.8194 0.955956 15.7984 0.853513 15.7566C0.751071 15.7147 0.657985 15.6529 0.579687 15.5747C0.501388 15.4965 0.439445 15.4035 0.397472 15.3012C0.355499 15.1988 0.334336 15.0891 0.335219 14.9784C0.336101 14.8678 0.359011 14.7584 0.402612 14.6567C0.446213 14.555 0.509631 14.463 0.589167 14.3861L14.7308 0.244406C14.8082 0.166925 14.9001 0.105459 15.0013 0.0635224C15.1025 0.0215855 15.2109 0 15.3204 0C15.4299 0 15.5384 0.0215855 15.6395 0.0635224C15.7407 0.105459 15.8326 0.166092 15.91 0.243572Z" fill="white"/>
</svg>
