<svg width="22" height="20" viewBox="0 0 22 20" fill="none" xmlns="http://www.w3.org/2000/svg">
<path fill-rule="evenodd" clip-rule="evenodd" d="M4.92879 15.6567C4.74132 15.8443 4.636 16.0986 4.636 16.3638C4.636 16.6289 4.74132 16.8832 4.92879 17.0707C8.83379 20.9757 15.1658 20.9757 19.0708 17.0707C22.9758 13.1657 22.9758 6.83375 19.0708 2.92875C15.1658 -0.97625 8.83379 -0.97625 4.92879 2.92875C3.29467 4.55781 2.27673 6.70362 2.04879 8.99975H0.999787C0.802037 8.99979 0.608738 9.05846 0.444328 9.16835C0.279919 9.27823 0.151779 9.4344 0.0761089 9.6171C0.000438906 9.7998 -0.0193641 10.0008 0.0192035 10.1948C0.0577711 10.3887 0.152977 10.5669 0.292787 10.7067L2.29279 12.7067L2.29479 12.7087C2.38762 12.8016 2.49787 12.8752 2.61922 12.9253C2.74057 12.9754 2.87062 13.0011 3.00191 13.0008C3.1332 13.0005 3.26314 12.9743 3.38427 12.9237C3.50541 12.873 3.61535 12.799 3.70779 12.7058L5.70779 10.7067C5.84766 10.5668 5.94288 10.3886 5.98142 10.1945C6.01995 10.0005 6.00007 9.79937 5.92427 9.61663C5.84848 9.43389 5.72018 9.27774 5.55562 9.16793C5.39106 9.05812 5.19762 8.99959 4.99979 8.99975H4.06179C4.28788 7.20611 5.11482 5.54192 6.40783 4.27843C7.70084 3.01495 9.38368 2.22666 11.1821 2.04205C12.9804 1.85745 14.7883 2.28741 16.3111 3.26185C17.8338 4.2363 18.9816 5.69778 19.5674 7.40808C20.1532 9.11839 20.1424 10.9767 19.5368 12.6801C18.9312 14.3835 17.7665 15.8315 16.2326 16.7882C14.6986 17.7449 12.8859 18.1539 11.0897 17.9484C9.29362 17.7429 7.62004 16.9352 6.34179 15.6567C6.1543 15.4696 5.90021 15.3645 5.63529 15.3645C5.37037 15.3645 5.11627 15.4696 4.92879 15.6567ZM9.99979 5.99975C9.99979 5.73453 10.1051 5.48018 10.2927 5.29264C10.4802 5.10511 10.7346 4.99975 10.9998 4.99975C11.265 4.99975 11.5194 5.10511 11.7069 5.29264C11.8944 5.48018 11.9998 5.73453 11.9998 5.99975V9.99975H15.9998C16.265 9.99975 16.5194 10.1051 16.7069 10.2926C16.8944 10.4802 16.9998 10.7345 16.9998 10.9998C16.9998 11.265 16.8944 11.5193 16.7069 11.7069C16.5194 11.8944 16.265 11.9998 15.9998 11.9998H10.9998C10.7346 11.9998 10.4802 11.8944 10.2927 11.7069C10.1051 11.5193 9.99979 11.265 9.99979 10.9998V5.99975Z" fill="white"/>
</svg>
