<svg width="27" height="24" viewBox="0 0 27 24" fill="none" xmlns="http://www.w3.org/2000/svg">
<path d="M5.31014 5H12.2406C12.8759 5 13.3956 4.55 13.3956 4C13.3956 3.45 12.8759 3 12.2406 3H5.31014C4.03956 3 3 3.9 3 5V19C3 20.1 4.03956 21 5.31014 21H12.2406C12.8759 21 13.3956 20.55 13.3956 20C13.3956 19.45 12.8759 19 12.2406 19H5.31014V5Z" fill="#E33629"/>
<path d="M23.6666 11.043L21.2068 3.41436C21.1455 3.219 21.0668 3.08483 20.9807 3.02901C20.8947 2.9732 20.8052 2.99828 20.7238 3.10105C20.6424 3.20383 20.5727 3.37961 20.5237 3.60591C20.4747 3.83221 20.4485 4.09873 20.4486 4.37136V9.26573H14.2771C13.7922 9.26573 13.3955 10.4962 13.3955 12C13.3955 13.5039 13.7922 14.7343 14.2771 14.7343H20.4486V19.6287C20.4486 20.8591 20.9247 21.4606 21.198 20.5857L23.6578 12.957C23.8341 12.4375 23.8341 11.5625 23.6666 11.043Z" fill="#E33629"/>
</svg>
