<svg width="20" height="18" viewBox="0 0 20 18" fill="none" xmlns="http://www.w3.org/2000/svg">
<path d="M15.7512 9.75C15.7512 10.0467 15.6633 10.3367 15.4984 10.5834C15.3336 10.83 15.0994 11.0223 14.8253 11.1358C14.5512 11.2494 14.2496 11.2791 13.9586 11.2212C13.6676 11.1633 13.4004 11.0204 13.1906 10.8107C12.9808 10.6009 12.8379 10.3336 12.7801 10.0426C12.7222 9.75166 12.7519 9.45006 12.8654 9.17597C12.979 8.90189 13.1712 8.66762 13.4179 8.5028C13.6646 8.33797 13.9546 8.25 14.2512 8.25C14.6491 8.25 15.0306 8.40804 15.3119 8.68934C15.5932 8.97064 15.7512 9.35217 15.7512 9.75ZM19.5012 6.75V14.25C19.5012 15.0456 19.1852 15.8087 18.6226 16.3713C18.06 16.9339 17.2969 17.25 16.5012 17.25H3.00124C2.20559 17.25 1.44253 16.9339 0.87992 16.3713C0.317311 15.8087 0.00124018 15.0456 0.00124018 14.25V3.08625C-0.0102981 2.68509 0.0587724 2.28569 0.204362 1.9117C0.349952 1.5377 0.569101 1.19673 0.848834 0.908952C1.12857 0.621176 1.4632 0.392453 1.83291 0.236324C2.20263 0.0801947 2.59991 -0.000165641 3.00124 2.56337e-07H15.3762C15.6746 2.56337e-07 15.9608 0.118527 16.1717 0.329505C16.3827 0.540483 16.5012 0.826632 16.5012 1.125C16.5012 1.42337 16.3827 1.70952 16.1717 1.9205C15.9608 2.13147 15.6746 2.25 15.3762 2.25H3.00124C2.90066 2.24995 2.8011 2.27012 2.70848 2.30933C2.61586 2.34854 2.53207 2.40597 2.4621 2.47822C2.39213 2.55046 2.3374 2.63605 2.30118 2.72987C2.26495 2.8237 2.24797 2.92385 2.25124 3.02438V3.03188C2.26699 3.23046 2.35813 3.41548 2.50595 3.54901C2.65377 3.68254 2.84709 3.75446 3.04624 3.75H16.5012C17.2969 3.75 18.06 4.06607 18.6226 4.62868C19.1852 5.19129 19.5012 5.95435 19.5012 6.75ZM17.2512 6.75C17.2512 6.55109 17.1722 6.36032 17.0316 6.21967C16.8909 6.07902 16.7002 6 16.5012 6H3.04624C2.77802 6.00011 2.51087 5.96609 2.25124 5.89875V14.25C2.25124 14.4489 2.33026 14.6397 2.47091 14.7803C2.61156 14.921 2.80233 15 3.00124 15H16.5012C16.7002 15 16.8909 14.921 17.0316 14.7803C17.1722 14.6397 17.2512 14.4489 17.2512 14.25V6.75Z" fill="#1389CD"/>
</svg>
